{"title":"House 3 (1989)","uid":5855906,"size":735039523,"categoryP":"video","categoryS":"movies","magnet":"?xt=urn:btih:5387d182b1bbf482cabcecad1d85e39494bc50b9&amp;dn=House+3+%281989%29&amp;tr=udp%3A%2F%2Ftracker.openbittorrent.com%3A80&amp;tr=udp%3A%2F%2Fopen.demonii.com%3A1337&amp;tr=udp%3A%2F%2Ftracker.coppersurfer.tk%3A6969&amp;tr=udp%3A%2F%2Fexodus.desync.com%3A6969","seeders":0,"leechers":1,"uploader":"neon","files":-1,"time":1285613746,"description":"Plot: Detective Lucas McCarthy finally apprehends &quot;Meat Cleaver Max&quot; and watches the electric chair execution from the audience. But killing Max Jenke only elevated him to another level of reality. Now Lucas' family is under attack, his sanity in question, and his house haunted. Aided by a disreputable college professor, can Lucas reclaim his mind, house, and family? Features Lance Henriksen as the Lucas McCarthy and Brion James as Max Jenke. One of the few movies featuring these actors as main characters.\n &lt;a href=&quot;\nhttp://www.imdb.com/title/tt0097527/&quot; rel=&quot;nofollow&quot; target=&quot;_NEW&quot;&gt;\nhttp://www.imdb.com/title/tt0097527/&lt;/a&gt;\n\nVideo\nID : 0\nFormat : MPEG-4 Visual\nFormat profile : Advanced Simple@L5\nFormat settings, BVOP : Yes\nFormat settings, QPel : No\nFormat settings, GMC : No warppoints\nFormat settings, Matrix : Custom\nCodec ID : XVID\nCodec ID/Hint : XviD\nDuration : 1h 30mn\nBit rate : 956 Kbps\nWidth : 672 pixels\nHeight : 352 pixels\nDisplay aspect ratio : 1.909\nFrame rate : 25.000 fps\nColor space : YUV\nChroma subsampling : 4:2:0\nBit depth : 8 bits\nScan type : Progressive\nBits/(Pixel*Frame) : 0.162\nStream size : 617 MiB (88%)\nWriting library : XviD 1.2.1 (UTC 2008-12-04)\n\nAudio\nID : 1\nFormat : MPEG Audio\nFormat version : Version 1\nFormat profile : Layer 3\nMode : Joint stereo\nCodec ID : 55\nCodec ID/Hint : MP3\nDuration : 1h 30mn\nBit rate mode : Variable\nBit rate : 117 Kbps\nNominal bit rate : 128 Kbps\nChannel(s) : 2 channels\nSampling rate : 48.0 KHz\nVideo delay : 264ms\nStream size : 75.4 MiB (11%)\nAlignment : Split accross interleaves\nInterleave, duration : 24 ms (0.60 video frame)\nInterleave, preload duration : 1120 ms\nWriting library : LAME3.98r\nEncoding settings : -m j -V 4 -q 2 -lowpass 17 --abr 128\nLanguage : English","torrent":{"xt":"urn:btih:5387d182b1bbf482cabcecad1d85e39494bc50b9","amp;dn":"House+3+%281989%29","amp;tr":["udp%3A%2F%2Ftracker.openbittorrent.com%3A80","udp%3A%2F%2Fopen.demonii.com%3A1337","udp%3A%2F%2Ftracker.coppersurfer.tk%3A6969","udp%3A%2F%2Fexodus.desync.com%3A6969"],"infoHash":"5387d182b1bbf482cabcecad1d85e39494bc50b9","infoHashBuffer":{"type":"Buffer","data":[83,135,209,130,177,187,244,130,202,188,236,173,29,133,227,148,148,188,80,185]},"announce":[],"urlList":[]}}